<svg width="112" height="33" viewBox="0 0 112 33" fill="none" xmlns="http://www.w3.org/2000/svg">
<g opacity="0.25">
<path d="M31.7505 12.7874C31.6901 10.2306 30.6268 7.80012 28.79 6.02053C26.9532 4.24094 24.4903 3.25497 21.9329 3.2755H21.2291H21.2234C20.3956 3.2755 19.5644 3.2755 18.7411 3.2755H16.8591L16.4829 3.0209L16.4057 2.96868C16.2056 2.83373 16.0008 2.6959 15.7873 2.54894L15.7256 2.50694C14.1562 1.44063 12.3108 0.853398 10.4137 0.816772C9.88526 0.823283 9.36339 0.935209 8.87872 1.14597C8.40077 1.35372 7.96689 1.65082 7.60036 2.02131C7.53471 2.08752 7.4745 2.1579 7.41394 2.22774C8.38259 2.22774 9.35342 2.23104 10.2717 2.23431C11.9342 2.24401 13.5561 2.74882 14.9305 3.68435L14.9383 3.68964L14.9714 3.71219L14.975 3.71472L14.9887 3.724L14.9903 3.72511C15.2218 3.8837 15.4592 4.04372 15.6887 4.19795C15.9294 4.3603 16.1739 4.52607 16.4222 4.69521C17.1957 4.69521 17.9727 4.69521 18.7418 4.69521C19.8001 4.69521 20.8737 4.69518 21.9331 4.69645C23.039 4.68635 24.1358 4.89656 25.1596 5.31484C26.1834 5.73312 27.1136 6.35111 27.8961 7.13271C28.6785 7.91431 29.2974 8.84392 29.7168 9.86726C30.1362 10.8906 30.3475 11.9872 30.3386 13.0931C30.3397 14.2691 30.3372 15.4643 30.3346 16.6203C30.3312 18.2248 30.3286 19.8654 30.3346 21.5016C30.4101 21.4355 30.4856 21.3695 30.5565 21.2977C30.9539 20.8944 31.2655 20.4148 31.4724 19.8878C31.6192 19.5155 31.7132 19.1245 31.7518 18.7262C31.7518 18.0205 31.7538 17.3178 31.7554 16.6232V16.5116C31.7554 16.3953 31.7554 16.2771 31.7554 16.16C31.7499 15.0333 31.7492 13.905 31.7505 12.7874Z" fill="#14B8A6"/>
</g>
<path d="M6.16763 32.6832C5.76175 32.6811 5.37178 32.5251 5.0764 32.2467C4.92255 32.101 4.80034 31.9252 4.71736 31.7303C4.63438 31.5353 4.59241 31.3253 4.59407 31.1135V28.187C4.05893 28.1524 3.53501 28.0177 3.04944 27.7901C2.44205 27.496 1.91685 27.0562 1.52063 26.5099C1.00194 25.8265 0.723505 24.9909 0.728584 24.1329C0.728584 22.3493 0.728584 20.5049 0.728584 18.737C0.728584 16.1362 0.728584 13.3452 0.730766 10.5553C0.731094 10.0169 0.840283 9.48414 1.05177 8.98902C1.46517 8.02221 2.23189 7.24958 3.19549 6.82875C3.68938 6.61353 4.22193 6.50115 4.76067 6.49848C5.51962 6.49266 6.33858 6.48975 7.26431 6.48975C8.16093 6.48975 9.05447 6.49247 9.91854 6.4952H9.92181L10.2515 6.49629C11.0779 6.49977 11.8835 6.75486 12.5613 7.2276C12.8214 7.40529 13.0829 7.58206 13.3044 7.73138L13.3273 7.74684C13.7802 8.05238 14.2485 8.36829 14.7052 8.69257C14.9486 8.86964 15.2443 8.96208 15.5453 8.95574H15.554C16.6107 8.95428 17.6932 8.95428 18.7402 8.95428C19.7872 8.95428 20.8697 8.95428 21.9279 8.95574C22.4746 8.94509 23.0179 9.04479 23.5252 9.24887C24.0326 9.45296 24.4936 9.75723 24.8806 10.1435C25.2677 10.5298 25.573 10.9902 25.7781 11.4971C25.9832 12.004 26.084 12.5471 26.0745 13.0939C26.0762 14.3255 26.0736 15.5615 26.0707 16.6082V16.8424V16.844C26.0662 19.1798 26.0612 21.5951 26.0889 23.967C26.0925 24.5148 25.9905 25.0582 25.7886 25.5675C25.5812 26.0944 25.2695 26.5741 24.8722 26.9775C24.4984 27.357 24.053 27.6585 23.5618 27.8643C23.0188 28.0888 22.4365 28.2027 21.8489 28.1992C20.8315 28.2012 19.7121 28.2021 18.2193 28.2021C17.4262 28.2021 16.6061 28.2021 15.799 28.2021H12.6373L7.10317 32.3633C6.83469 32.5694 6.50607 32.6817 6.16763 32.6832ZM5.63802 20.6393C5.39693 20.6396 5.1658 20.7355 4.99532 20.906C4.82485 21.0765 4.72895 21.3076 4.72866 21.5487V23.3674C4.72895 23.6085 4.82485 23.8396 4.99532 24.0101C5.1658 24.1806 5.39693 24.2765 5.63802 24.2768H15.0953C15.3364 24.2765 15.5675 24.1806 15.738 24.0101C15.9085 23.8396 16.0044 23.6085 16.0047 23.3674V21.5487C16.0044 21.3076 15.9085 21.0765 15.738 20.906C15.5675 20.7355 15.3364 20.6396 15.0953 20.6393H5.63802ZM5.63802 13.8939C5.39693 13.8942 5.1658 13.9901 4.99532 14.1606C4.82485 14.331 4.72895 14.5622 4.72866 14.8033V16.622C4.72895 16.8631 4.82485 17.0942 4.99532 17.2647C5.1658 17.4351 5.39693 17.531 5.63802 17.5313H20.5515C20.7925 17.531 21.0237 17.4351 21.1941 17.2647C21.3646 17.0942 21.4605 16.8631 21.4608 16.622V14.8033C21.4605 14.5622 21.3646 14.331 21.1941 14.1606C21.0237 13.9901 20.7925 13.8942 20.5515 13.8939H5.63802Z" fill="#14B8A6"/>
<g opacity="0.6">
<path d="M28.9111 20.9065C28.8861 18.5273 28.8907 16.1115 28.896 13.7723C28.896 13.3862 28.8976 12.995 28.8981 12.6023C28.7934 10.8465 28.0215 9.19709 26.7404 7.99178C25.4593 6.78647 23.766 6.11643 22.007 6.11881H21.5651C20.5079 6.11881 19.4359 6.11878 18.3787 6.12005H18.3703C18.3496 6.12005 18.3311 6.11678 18.3107 6.11605C17.535 6.11605 16.7548 6.11605 15.9793 6.11605C15.6124 5.86143 15.2487 5.61557 14.8939 5.37622C14.662 5.21982 14.4226 5.0585 14.1889 4.89846L14.1877 4.89735L14.162 4.87914L14.16 4.87772L14.1524 4.87262L14.1502 4.87097C13.0054 4.08628 11.6519 3.6622 10.264 3.65333L9.35317 3.65027C8.72444 3.65154 8.13953 3.65391 7.58428 3.65773C7.04586 3.66089 6.51372 3.77347 6.02019 3.9887C5.54219 4.19629 5.10829 4.49335 4.74183 4.86387C4.67254 4.93389 4.60852 5.00795 4.54486 5.08215C4.61324 5.07906 4.6818 5.07612 4.75073 5.07558C5.52332 5.07012 6.34573 5.06741 7.26509 5.06741C8.27957 5.06741 9.2995 5.07048 10.2585 5.07393C11.3654 5.07718 12.4451 5.41664 13.3547 6.04732L13.3562 6.04843L13.3652 6.05478L13.3672 6.05607L13.3743 6.06113C13.6146 6.22481 13.8608 6.39178 14.0998 6.5531C14.5638 6.8661 15.0434 7.18965 15.5184 7.52702L15.5301 7.53483C15.5357 7.53483 15.5433 7.53483 15.553 7.53483C16.6104 7.53483 17.6827 7.53355 18.7403 7.53355C19.7979 7.53355 20.8707 7.53356 21.929 7.53483C22.6622 7.52445 23.3899 7.66107 24.0694 7.93659C24.7489 8.2121 25.3663 8.62094 25.8852 9.139C26.404 9.65705 26.8139 10.2738 27.0905 10.9529C27.367 11.6319 27.5048 12.3595 27.4955 13.0927C27.4966 14.2657 27.4941 15.4581 27.4915 16.6109C27.4863 19.0176 27.481 21.5067 27.5085 23.9502C27.5099 24.0733 27.5054 24.197 27.4985 24.3208C27.5654 24.2614 27.6332 24.203 27.6965 24.139C28.0939 23.7357 28.4054 23.2562 28.6124 22.7292C28.8108 22.2284 28.9122 21.6944 28.9112 21.1557C28.9112 21.0736 28.9112 20.9906 28.9111 20.9065Z" fill="#14B8A6"/>
</g>
</svg>
